<svg xmlns="http://www.w3.org/2000/svg" viewBox="0 0 340 100" role="img" aria-labelledby="amongusTitle">
  <title id="amongusTitle">Among Us logo</title>
  <rect width="340" height="100" rx="20" fill="#050505" />
  <path d="M80 30c8-18 42-28 74-22 28 6 40 26 44 48 4 24-4 44-20 52-8 4-20 4-28 4s-20 0-28-4c-16-8-24-28-20-52 0-18 6-30 12-42Z" fill="#d6a800" />
  <ellipse cx="220" cy="48" rx="30" ry="18" fill="#050505" />
  <path d="M200 42c4-4 16-10 28-6 8 2 14 10 12 18-2 10-14 18-22 18-8 0-16-2-18-10-2-8 2-16 0-20Z" fill="#d6a800" opacity="0.75" />
  <rect x="60" y="24" width="220" height="12" rx="6" fill="#d6a800" opacity="0.6" />
</svg>
